# MagicaVoxel @ Ephtracy

# group
o 

# material
mtllib grass.mtl
usemtl palette

# normals
vn -1 0 0
vn 1 0 0
vn 0 0 1
vn 0 0 -1
vn 0 -1 0
vn 0 1 0

# texcoords
vt 0.0878906 0.5
vt 0.255859 0.5
vt 0.365234 0.5
vt 0.369141 0.5
vt 0.373047 0.5
vt 0.396484 0.5
vt 0.466797 0.5
vt 0.509766 0.5
vt 0.560547 0.5
vt 0.654297 0.5

# verts
v -0.5 0 0.5
v -0.5 0 -0.1
v -0.5 0 -0.2
v -0.5 0 -0.5
v -0.5 0.1 0.1
v -0.5 0.1 0
v -0.5 0.1 -0.1
v -0.5 0.1 -0.2
v -0.5 0.2 0.4
v -0.5 0.2 0.1
v -0.5 0.2 0
v -0.5 0.2 -0.1
v -0.5 0.3 0.5
v -0.5 0.3 0.4
v -0.5 0.3 0.1
v -0.5 0.3 0
v -0.5 0.3 -0.1
v -0.5 0.4 0.5
v -0.5 0.4 0.4
v -0.5 0.4 0.3
v -0.5 0.4 0.1
v -0.5 0.4 -0.5
v -0.5 0.5 0.4
v -0.5 0.5 0.3
v -0.5 0.6 0.3
v -0.5 0.6 -0.5
v -0.5 0.7 0.5
v -0.5 0.7 -0.5
v -0.5 0.9 0.5
v -0.5 0.9 0.2
v -0.5 0.9 -0.5
v -0.5 1 0.5
v -0.5 1 0.2
v -0.5 1 -0.5
v 0.5 0 0.5
v 0.5 0 0
v 0.5 0 -0.2
v 0.5 0 -0.5
v 0.5 0.1 0.4
v 0.5 0.1 0.2
v 0.5 0.1 0.1
v 0.5 0.1 0
v 0.5 0.1 -0.1
v 0.5 0.1 -0.2
v 0.5 0.1 -0.5
v 0.5 0.2 0.5
v 0.5 0.2 0.4
v 0.5 0.2 0.3
v 0.5 0.2 0.2
v 0.5 0.2 0.1
v 0.5 0.2 0
v 0.5 0.2 -0.1
v 0.5 0.2 -0.2
v 0.5 0.2 -0.5
v 0.5 0.3 0.5
v 0.5 0.3 0.3
v 0.5 0.3 0.2
v 0.5 0.3 0
v 0.5 0.3 -0.1
v 0.5 0.3 -0.2
v 0.5 0.3 -0.4
v 0.5 0.3 -0.5
v 0.5 0.4 0.5
v 0.5 0.4 0.4
v 0.5 0.4 0.3
v 0.5 0.4 0.2
v 0.5 0.4 -0.1
v 0.5 0.4 -0.4
v 0.5 0.4 -0.5
v 0.5 0.5 -0.2
v 0.5 0.5 -0.4
v 0.5 0.6 0.4
v 0.5 0.6 0.3
v 0.5 0.6 -0.1
v 0.5 0.6 -0.5
v 0.5 0.7 0.5
v 0.5 0.7 -0.1
v 0.5 0.7 -0.2
v 0.5 0.7 -0.5
v 0.5 0.8 0
v 0.5 0.8 -0.2
v 0.5 0.8 -0.3
v 0.5 0.8 -0.4
v 0.5 0.8 -0.5
v 0.5 0.9 0.5
v 0.5 0.9 0.4
v 0.5 0.9 0
v 0.5 0.9 -0.2
v 0.5 0.9 -0.3
v 0.5 1 0.5
v 0.5 1 0.4
v 0.5 1 -0.2
v 0.5 1 -0.4
v 0.5 1 -0.5
v -0.5 0 0.5
v -0.5 0.3 0.5
v -0.5 0.4 0.5
v -0.5 0.7 0.5
v -0.5 0.9 0.5
v -0.5 1 0.5
v -0.4 0.9 0.5
v -0.4 1 0.5
v -0.3 0.1 0.5
v -0.3 0.3 0.5
v -0.3 0.9 0.5
v -0.3 1 0.5
v 0.1 0.1 0.5
v 0.1 0.4 0.5
v 0.1 0.6 0.5
v 0.4 0.2 0.5
v 0.4 0.3 0.5
v 0.4 0.4 0.5
v 0.4 0.6 0.5
v 0.4 0.9 0.5
v 0.4 1 0.5
v 0.5 0 0.5
v 0.5 0.2 0.5
v 0.5 0.3 0.5
v 0.5 0.4 0.5
v 0.5 0.7 0.5
v 0.5 0.9 0.5
v 0.5 1 0.5
v -0.5 0 -0.5
v -0.5 0.4 -0.5
v -0.5 0.6 -0.5
v -0.5 0.7 -0.5
v -0.5 0.9 -0.5
v -0.5 1 -0.5
v -0.4 0.4 -0.5
v -0.4 0.6 -0.5
v -0.3 0.6 -0.5
v -0.3 0.7 -0.5
v -0.3 0.8 -0.5
v -0.3 0.9 -0.5
v -0.3 1 -0.5
v -0.2 0.3 -0.5
v -0.2 0.4 -0.5
v -0.2 0.5 -0.5
v -0.1 0.2 -0.5
v -0.1 0.3 -0.5
v 0 0.1 -0.5
v 0 0.2 -0.5
v 0.1 0.6 -0.5
v 0.1 0.7 -0.5
v 0.2 0.1 -0.5
v 0.2 0.2 -0.5
v 0.2 0.3 -0.5
v 0.2 0.6 -0.5
v 0.2 0.7 -0.5
v 0.3 0.4 -0.5
v 0.3 0.5 -0.5
v 0.4 0.1 -0.5
v 0.4 0.2 -0.5
v 0.5 0 -0.5
v 0.5 0.1 -0.5
v 0.5 0.2 -0.5
v 0.5 0.3 -0.5
v 0.5 0.4 -0.5
v 0.5 0.6 -0.5
v 0.5 0.7 -0.5
v 0.5 0.8 -0.5
v 0.5 1 -0.5
v -0.5 0 0.5
v 0.5 0 0.5
v 0.4 0 0
v 0.5 0 0
v -0.5 0 -0.1
v -0.4 0 -0.1
v -0.5 0 -0.2
v -0.4 0 -0.2
v 0.4 0 -0.2
v 0.5 0 -0.2
v -0.5 0 -0.5
v 0.5 0 -0.5
v -0.5 1 0.5
v -0.4 1 0.5
v -0.3 1 0.5
v 0.4 1 0.5
v 0.5 1 0.5
v -0.4 1 0.4
v -0.3 1 0.4
v -0.2 1 0.4
v 0.4 1 0.4
v 0.5 1 0.4
v -0.2 1 0.3
v 0.4 1 0.3
v -0.5 1 0.2
v -0.2 1 0.2
v -0.3 1 -0.2
v -0.2 1 -0.2
v -0.1 1 -0.2
v 0 1 -0.2
v 0.5 1 -0.2
v -0.4 1 -0.3
v -0.3 1 -0.3
v -0.2 1 -0.3
v -0.1 1 -0.3
v 0 1 -0.3
v -0.4 1 -0.4
v -0.3 1 -0.4
v 0.5 1 -0.4
v -0.5 1 -0.5
v -0.3 1 -0.5
v 0.5 1 -0.5

# faces
f 5/4/1 2/4/1 1/4/1
f 6/4/1 2/4/1 5/4/1
f 7/3/1 3/3/1 2/3/1
f 7/4/1 2/4/1 6/4/1
f 8/4/1 4/4/1 3/4/1
f 8/3/1 3/3/1 7/3/1
f 9/4/1 5/4/1 1/4/1
f 10/3/1 6/3/1 5/3/1
f 10/4/1 5/4/1 9/4/1
f 11/4/1 7/4/1 6/4/1
f 11/3/1 6/3/1 10/3/1
f 11/4/1 8/4/1 7/4/1
f 12/4/1 8/4/1 11/4/1
f 13/4/1 9/4/1 1/4/1
f 14/3/1 10/3/1 9/3/1
f 14/4/1 9/4/1 13/4/1
f 15/1/1 11/1/1 10/1/1
f 15/3/1 10/3/1 14/3/1
f 16/3/1 12/3/1 11/3/1
f 16/1/1 11/1/1 15/1/1
f 17/4/1 8/4/1 12/4/1
f 17/3/1 12/3/1 16/3/1
f 18/2/1 14/2/1 13/2/1
f 19/3/1 15/3/1 14/3/1
f 19/2/1 14/2/1 18/2/1
f 20/3/1 15/3/1 19/3/1
f 21/4/1 16/4/1 15/4/1
f 21/3/1 15/3/1 20/3/1
f 21/4/1 17/4/1 16/4/1
f 22/4/1 4/4/1 8/4/1
f 22/4/1 17/4/1 21/4/1
f 22/4/1 8/4/1 17/4/1
f 23/1/1 20/1/1 19/1/1
f 23/4/1 19/4/1 18/4/1
f 24/3/1 21/3/1 20/3/1
f 24/1/1 20/1/1 23/1/1
f 24/3/1 22/3/1 21/3/1
f 25/4/1 24/4/1 23/4/1
f 25/3/1 22/3/1 24/3/1
f 26/3/1 22/3/1 25/3/1
f 27/4/1 23/4/1 18/4/1
f 27/4/1 25/4/1 23/4/1
f 27/4/1 26/4/1 25/4/1
f 28/4/1 26/4/1 27/4/1
f 29/7/1 28/7/1 27/7/1
f 30/7/1 28/7/1 29/7/1
f 31/7/1 28/7/1 30/7/1
f 32/8/1 30/8/1 29/8/1
f 33/10/1 31/10/1 30/10/1
f 33/8/1 30/8/1 32/8/1
f 34/10/1 31/10/1 33/10/1
f 35/4/2 36/4/2 39/4/2
f 39/4/2 36/4/2 40/4/2
f 40/4/2 36/4/2 41/4/2
f 36/9/2 37/9/2 42/9/2
f 41/4/2 36/4/2 42/4/2
f 42/9/2 37/9/2 43/9/2
f 37/4/2 38/4/2 44/4/2
f 43/9/2 37/9/2 44/9/2
f 44/4/2 38/4/2 45/4/2
f 35/4/2 39/4/2 46/4/2
f 39/6/2 40/6/2 47/6/2
f 46/4/2 39/4/2 47/4/2
f 47/6/2 40/6/2 48/6/2
f 40/4/2 41/4/2 49/4/2
f 48/6/2 40/6/2 49/6/2
f 42/9/2 43/9/2 50/9/2
f 49/4/2 41/4/2 50/4/2
f 41/9/2 42/9/2 50/9/2
f 50/9/2 43/9/2 51/9/2
f 43/4/2 44/4/2 52/4/2
f 51/9/2 43/9/2 52/9/2
f 44/6/2 45/6/2 53/6/2
f 52/4/2 44/4/2 53/4/2
f 53/6/2 45/6/2 54/6/2
f 47/9/2 48/9/2 55/9/2
f 46/9/2 47/9/2 55/9/2
f 48/5/2 49/5/2 56/5/2
f 55/9/2 48/9/2 56/9/2
f 50/5/2 51/5/2 56/5/2
f 49/5/2 50/5/2 56/5/2
f 56/5/2 51/5/2 57/5/2
f 51/4/2 52/4/2 58/4/2
f 57/5/2 51/5/2 58/5/2
f 52/6/2 53/6/2 59/6/2
f 58/4/2 52/4/2 59/4/2
f 53/4/2 54/4/2 60/4/2
f 59/6/2 53/6/2 60/6/2
f 60/4/2 54/4/2 61/4/2
f 61/4/2 54/4/2 62/4/2
f 56/5/2 57/5/2 63/5/2
f 55/5/2 56/5/2 63/5/2
f 63/5/2 57/5/2 64/5/2
f 64/5/2 57/5/2 65/5/2
f 58/6/2 59/6/2 66/6/2
f 65/5/2 57/5/2 66/5/2
f 57/6/2 58/6/2 66/6/2
f 59/4/2 60/4/2 67/4/2
f 66/6/2 59/6/2 67/6/2
f 61/9/2 62/9/2 68/9/2
f 60/6/2 61/6/2 68/6/2
f 68/9/2 62/9/2 69/9/2
f 67/4/2 60/4/2 70/4/2
f 65/4/2 66/4/2 70/4/2
f 66/4/2 67/4/2 70/4/2
f 60/6/2 68/6/2 70/6/2
f 68/4/2 69/4/2 71/4/2
f 70/6/2 68/6/2 71/6/2
f 64/6/2 65/6/2 72/6/2
f 63/4/2 64/4/2 72/4/2
f 70/4/2 71/4/2 73/4/2
f 72/6/2 65/6/2 73/6/2
f 65/4/2 70/4/2 73/4/2
f 73/4/2 71/4/2 74/4/2
f 71/4/2 69/4/2 75/4/2
f 74/4/2 71/4/2 75/4/2
f 73/4/2 74/4/2 76/4/2
f 63/4/2 72/4/2 76/4/2
f 72/4/2 73/4/2 76/4/2
f 74/7/2 75/7/2 77/7/2
f 76/4/2 74/4/2 77/4/2
f 77/7/2 75/7/2 78/7/2
f 78/7/2 75/7/2 79/7/2
f 76/7/2 77/7/2 80/7/2
f 77/7/2 78/7/2 80/7/2
f 78/10/2 79/10/2 81/10/2
f 80/7/2 78/7/2 81/7/2
f 81/10/2 79/10/2 82/10/2
f 82/10/2 79/10/2 83/10/2
f 83/10/2 79/10/2 84/10/2
f 76/7/2 80/7/2 85/7/2
f 85/7/2 80/7/2 86/7/2
f 80/10/2 81/10/2 87/10/2
f 86/7/2 80/7/2 87/7/2
f 81/8/2 82/8/2 88/8/2
f 87/10/2 81/10/2 88/10/2
f 82/10/2 83/10/2 89/10/2
f 88/8/2 82/8/2 89/8/2
f 85/10/2 86/10/2 90/10/2
f 86/8/2 87/8/2 91/8/2
f 90/10/2 86/10/2 91/10/2
f 87/8/2 88/8/2 91/8/2
f 88/10/2 89/10/2 92/10/2
f 91/8/2 88/8/2 92/8/2
f 89/10/2 83/10/2 93/10/2
f 92/10/2 89/10/2 93/10/2
f 83/8/2 84/8/2 93/8/2
f 93/8/2 84/8/2 94/8/2
f 101/7/3 99/7/3 98/7/3
f 101/8/3 100/8/3 99/8/3
f 102/8/3 100/8/3 101/8/3
f 103/4/3 96/4/3 95/4/3
f 104/2/3 97/2/3 96/2/3
f 104/4/3 96/4/3 103/4/3
f 105/7/3 101/7/3 98/7/3
f 105/10/3 102/10/3 101/10/3
f 106/10/3 102/10/3 105/10/3
f 107/4/3 103/4/3 95/4/3
f 107/2/3 104/2/3 103/2/3
f 108/4/3 98/4/3 97/4/3
f 108/2/3 104/2/3 107/2/3
f 108/2/3 97/2/3 104/2/3
f 109/4/3 98/4/3 108/4/3
f 110/4/3 108/4/3 107/4/3
f 111/4/3 108/4/3 110/4/3
f 112/2/3 109/2/3 108/2/3
f 112/4/3 108/4/3 111/4/3
f 113/4/3 98/4/3 109/4/3
f 113/2/3 109/2/3 112/2/3
f 114/7/3 105/7/3 98/7/3
f 114/8/3 106/8/3 105/8/3
f 115/8/3 106/8/3 114/8/3
f 116/4/3 107/4/3 95/4/3
f 116/4/3 110/4/3 107/4/3
f 117/9/3 111/9/3 110/9/3
f 117/4/3 110/4/3 116/4/3
f 118/5/3 112/5/3 111/5/3
f 118/9/3 111/9/3 117/9/3
f 119/4/3 113/4/3 112/4/3
f 119/5/3 112/5/3 118/5/3
f 120/4/3 98/4/3 113/4/3
f 120/4/3 113/4/3 119/4/3
f 120/7/3 114/7/3 98/7/3
f 121/10/3 115/10/3 114/10/3
f 121/7/3 114/7/3 120/7/3
f 122/10/3 115/10/3 121/10/3
f 123/4/4 124/4/4 129/4/4
f 124/3/4 125/3/4 129/3/4
f 125/4/4 126/4/4 130/4/4
f 129/3/4 125/3/4 130/3/4
f 129/4/4 130/4/4 131/4/4
f 130/4/4 126/4/4 131/4/4
f 126/7/4 127/7/4 132/7/4
f 131/4/4 126/4/4 132/4/4
f 132/7/4 127/7/4 133/7/4
f 127/10/4 128/10/4 134/10/4
f 133/7/4 127/7/4 134/7/4
f 134/10/4 128/10/4 135/10/4
f 129/4/4 131/4/4 136/4/4
f 123/4/4 129/4/4 136/4/4
f 136/4/4 131/4/4 137/4/4
f 137/4/4 131/4/4 138/4/4
f 123/4/4 136/4/4 139/4/4
f 136/9/4 137/9/4 140/9/4
f 139/4/4 136/4/4 140/4/4
f 123/4/4 139/4/4 141/4/4
f 139/5/4 140/5/4 142/5/4
f 141/4/4 139/4/4 142/4/4
f 131/7/4 132/7/4 143/7/4
f 138/4/4 131/4/4 143/4/4
f 132/10/4 133/10/4 144/10/4
f 143/7/4 132/7/4 144/7/4
f 141/9/4 142/9/4 145/9/4
f 123/4/4 141/4/4 145/4/4
f 142/5/4 140/5/4 146/5/4
f 145/9/4 142/9/4 146/9/4
f 140/9/4 137/9/4 147/9/4
f 146/5/4 140/5/4 147/5/4
f 138/4/4 143/4/4 148/4/4
f 143/10/4 144/10/4 148/10/4
f 144/10/4 133/10/4 149/10/4
f 148/10/4 144/10/4 149/10/4
f 147/9/4 137/9/4 150/9/4
f 137/1/4 138/1/4 150/1/4
f 138/4/4 148/4/4 151/4/4
f 150/1/4 138/1/4 151/1/4
f 123/4/4 145/4/4 152/4/4
f 145/4/4 146/4/4 152/4/4
f 146/4/4 147/4/4 152/4/4
f 152/4/4 147/4/4 153/4/4
f 123/4/4 152/4/4 154/4/4
f 152/6/4 153/6/4 155/6/4
f 154/4/4 152/4/4 155/4/4
f 153/4/4 147/4/4 156/4/4
f 155/6/4 153/6/4 156/6/4
f 147/9/4 150/9/4 157/9/4
f 156/4/4 147/4/4 157/4/4
f 150/4/4 151/4/4 158/4/4
f 157/9/4 150/9/4 158/9/4
f 151/4/4 148/4/4 159/4/4
f 158/4/4 151/4/4 159/4/4
f 148/7/4 149/7/4 159/7/4
f 149/10/4 133/10/4 160/10/4
f 159/7/4 149/7/4 160/7/4
f 134/8/4 135/8/4 161/8/4
f 160/10/4 133/10/4 161/10/4
f 133/8/4 134/8/4 161/8/4
f 161/8/4 135/8/4 162/8/4
f 165/4/5 164/4/5 163/4/5
f 166/4/5 164/4/5 165/4/5
f 167/4/5 165/4/5 163/4/5
f 168/4/5 165/4/5 167/4/5
f 169/3/5 168/3/5 167/3/5
f 170/4/5 165/4/5 168/4/5
f 170/3/5 168/3/5 169/3/5
f 171/9/5 166/9/5 165/9/5
f 171/4/5 165/4/5 170/4/5
f 172/9/5 166/9/5 171/9/5
f 173/4/5 170/4/5 169/4/5
f 173/4/5 171/4/5 170/4/5
f 173/4/5 172/4/5 171/4/5
f 174/4/5 172/4/5 173/4/5
f 175/8/6 176/8/6 180/8/6
f 176/10/6 177/10/6 180/10/6
f 177/8/6 178/8/6 181/8/6
f 180/10/6 177/10/6 181/10/6
f 181/8/6 178/8/6 182/8/6
f 178/10/6 179/10/6 183/10/6
f 182/8/6 178/8/6 183/8/6
f 183/10/6 179/10/6 184/10/6
f 181/8/6 182/8/6 185/8/6
f 180/8/6 181/8/6 185/8/6
f 182/10/6 183/10/6 185/10/6
f 183/8/6 184/8/6 186/8/6
f 185/10/6 183/10/6 186/10/6
f 175/8/6 180/8/6 187/8/6
f 180/8/6 185/8/6 187/8/6
f 185/8/6 186/8/6 187/8/6
f 187/8/6 186/8/6 188/8/6
f 187/10/6 188/10/6 189/10/6
f 188/8/6 186/8/6 190/8/6
f 189/10/6 188/10/6 190/10/6
f 190/8/6 186/8/6 191/8/6
f 191/8/6 186/8/6 192/8/6
f 186/8/6 184/8/6 193/8/6
f 192/8/6 186/8/6 193/8/6
f 187/10/6 189/10/6 194/10/6
f 189/8/6 190/8/6 195/8/6
f 194/10/6 189/10/6 195/10/6
f 190/10/6 191/10/6 196/10/6
f 195/8/6 190/8/6 196/8/6
f 191/8/6 192/8/6 197/8/6
f 196/10/6 191/10/6 197/10/6
f 192/10/6 193/10/6 198/10/6
f 197/8/6 192/8/6 198/8/6
f 187/10/6 194/10/6 199/10/6
f 194/8/6 195/8/6 199/8/6
f 195/10/6 196/10/6 200/10/6
f 199/8/6 195/8/6 200/8/6
f 197/10/6 198/10/6 200/10/6
f 196/10/6 197/10/6 200/10/6
f 198/10/6 193/10/6 201/10/6
f 200/10/6 198/10/6 201/10/6
f 187/10/6 199/10/6 202/10/6
f 199/10/6 200/10/6 202/10/6
f 200/8/6 201/8/6 203/8/6
f 202/10/6 200/10/6 203/10/6
f 203/8/6 201/8/6 204/8/6
