# MagicaVoxel @ Ephtracy

# group
o 

# material
mtllib ground.mtl
usemtl palette

# normals
vn -1 0 0
vn 1 0 0
vn 0 0 1
vn 0 0 -1
vn 0 -1 0
vn 0 1 0

# texcoords
vt 0.369141 0.5
vt 0.373047 0.5
vt 0.396484 0.5
vt 0.748047 0.5

# verts
v -0.5 0 0.5
v -0.5 0 -0.5
v -0.5 0.3 0.5
v -0.5 0.3 0.4
v -0.5 0.5 0.4
v -0.5 0.5 -0.5
v -0.5 0.7 0.5
v -0.5 0.7 0.4
v -0.5 1 0.5
v -0.5 1 -0.5
v 0.5 0 0.5
v 0.5 0 -0.5
v 0.5 0.1 0.5
v 0.5 0.1 0.4
v 0.5 0.2 0.5
v 0.5 0.2 0.4
v 0.5 0.3 0.5
v 0.5 0.3 0.2
v 0.5 0.3 -0.2
v 0.5 0.3 -0.5
v 0.5 0.5 0.2
v 0.5 0.5 -0.2
v 0.5 0.6 0.2
v 0.5 0.6 -0.2
v 0.5 0.7 -0.2
v 0.5 0.7 -0.5
v 0.5 0.8 0.5
v 0.5 0.8 -0.5
v 0.5 1 0.5
v 0.5 1 -0.5
v -0.5 0 0.5
v -0.5 0.3 0.5
v -0.5 0.7 0.5
v -0.5 1 0.5
v -0.4 0.3 0.5
v -0.4 0.5 0.5
v -0.3 0.1 0.5
v -0.3 0.2 0.5
v -0.2 0.1 0.5
v -0.2 0.2 0.5
v 0 0.1 0.5
v 0 0.2 0.5
v 0 0.6 0.5
v 0 0.7 0.5
v 0 0.8 0.5
v 0.1 0.1 0.5
v 0.1 0.2 0.5
v 0.2 0.3 0.5
v 0.2 0.5 0.5
v 0.3 0.3 0.5
v 0.3 0.6 0.5
v 0.4 0.1 0.5
v 0.4 0.2 0.5
v 0.5 0 0.5
v 0.5 0.1 0.5
v 0.5 0.2 0.5
v 0.5 0.3 0.5
v 0.5 0.8 0.5
v 0.5 1 0.5
v -0.5 0 -0.5
v -0.5 0.5 -0.5
v -0.5 1 -0.5
v -0.3 0.3 -0.5
v -0.3 0.5 -0.5
v -0.3 0.7 -0.5
v 0 0.7 -0.5
v 0 0.8 -0.5
v 0.5 0 -0.5
v 0.5 0.3 -0.5
v 0.5 0.7 -0.5
v 0.5 0.8 -0.5
v 0.5 1 -0.5
v -0.5 0 0.5
v 0.5 0 0.5
v -0.5 0 -0.5
v 0.5 0 -0.5
v -0.5 1 0.5
v 0.5 1 0.5
v -0.5 1 -0.5
v 0.5 1 -0.5

# faces
f 3/2/1 2/2/1 1/2/1
f 4/2/1 2/2/1 3/2/1
f 5/3/1 4/3/1 3/3/1
f 5/2/1 2/2/1 4/2/1
f 6/2/1 2/2/1 5/2/1
f 7/3/1 5/3/1 3/3/1
f 8/4/1 6/4/1 5/4/1
f 8/3/1 5/3/1 7/3/1
f 9/4/1 8/4/1 7/4/1
f 10/4/1 6/4/1 8/4/1
f 10/4/1 8/4/1 9/4/1
f 11/2/2 12/2/2 13/2/2
f 13/2/2 12/2/2 14/2/2
f 13/3/2 14/3/2 15/3/2
f 14/2/2 12/2/2 16/2/2
f 15/3/2 14/3/2 16/3/2
f 15/2/2 16/2/2 17/2/2
f 16/2/2 12/2/2 18/2/2
f 17/2/2 16/2/2 18/2/2
f 18/2/2 12/2/2 19/2/2
f 19/2/2 12/2/2 20/2/2
f 17/1/2 18/1/2 21/1/2
f 18/2/2 19/2/2 21/2/2
f 19/3/2 20/3/2 22/3/2
f 21/2/2 19/2/2 22/2/2
f 17/1/2 21/1/2 23/1/2
f 21/4/2 22/4/2 23/4/2
f 22/3/2 20/3/2 24/3/2
f 23/4/2 22/4/2 24/4/2
f 23/1/2 24/1/2 25/1/2
f 24/3/2 20/3/2 25/3/2
f 25/3/2 20/3/2 26/3/2
f 17/1/2 23/1/2 27/1/2
f 23/1/2 25/1/2 27/1/2
f 25/1/2 26/1/2 27/1/2
f 27/1/2 26/1/2 28/1/2
f 27/4/2 28/4/2 29/4/2
f 29/4/2 28/4/2 30/4/2
f 35/2/3 32/2/3 31/2/3
f 35/3/3 33/3/3 32/3/3
f 36/3/3 33/3/3 35/3/3
f 37/2/3 35/2/3 31/2/3
f 38/2/3 35/2/3 37/2/3
f 39/2/3 37/2/3 31/2/3
f 39/3/3 38/3/3 37/3/3
f 40/2/3 35/2/3 38/2/3
f 40/3/3 38/3/3 39/3/3
f 41/2/3 39/2/3 31/2/3
f 41/2/3 40/2/3 39/2/3
f 42/2/3 35/2/3 40/2/3
f 42/2/3 40/2/3 41/2/3
f 43/3/3 33/3/3 36/3/3
f 44/4/3 34/4/3 33/4/3
f 44/3/3 33/3/3 43/3/3
f 45/4/3 34/4/3 44/4/3
f 46/2/3 41/2/3 31/2/3
f 46/3/3 42/3/3 41/3/3
f 47/2/3 35/2/3 42/2/3
f 47/3/3 42/3/3 46/3/3
f 48/1/3 36/1/3 35/1/3
f 48/2/3 35/2/3 47/2/3
f 48/2/3 47/2/3 46/2/3
f 49/3/3 43/3/3 36/3/3
f 49/1/3 36/1/3 48/1/3
f 50/2/3 48/2/3 46/2/3
f 50/3/3 49/3/3 48/3/3
f 51/3/3 43/3/3 49/3/3
f 51/3/3 49/3/3 50/3/3
f 51/1/3 44/1/3 43/1/3
f 51/1/3 45/1/3 44/1/3
f 52/2/3 50/2/3 46/2/3
f 52/2/3 46/2/3 31/2/3
f 53/2/3 50/2/3 52/2/3
f 54/2/3 52/2/3 31/2/3
f 55/3/3 53/3/3 52/3/3
f 55/2/3 52/2/3 54/2/3
f 56/2/3 50/2/3 53/2/3
f 56/3/3 53/3/3 55/3/3
f 57/1/3 51/1/3 50/1/3
f 57/2/3 50/2/3 56/2/3
f 58/1/3 45/1/3 51/1/3
f 58/1/3 51/1/3 57/1/3
f 58/4/3 34/4/3 45/4/3
f 59/4/3 34/4/3 58/4/3
f 60/2/4 61/2/4 63/2/4
f 61/4/4 62/4/4 64/4/4
f 63/2/4 61/2/4 64/2/4
f 64/4/4 62/4/4 65/4/4
f 63/3/4 64/3/4 66/3/4
f 65/4/4 62/4/4 66/4/4
f 64/3/4 65/3/4 66/3/4
f 66/4/4 62/4/4 67/4/4
f 60/2/4 63/2/4 68/2/4
f 63/3/4 66/3/4 69/3/4
f 68/2/4 63/2/4 69/2/4
f 66/1/4 67/1/4 70/1/4
f 69/3/4 66/3/4 70/3/4
f 67/4/4 62/4/4 71/4/4
f 70/1/4 67/1/4 71/1/4
f 71/4/4 62/4/4 72/4/4
f 75/2/5 74/2/5 73/2/5
f 76/2/5 74/2/5 75/2/5
f 77/4/6 78/4/6 79/4/6
f 79/4/6 78/4/6 80/4/6
