# MagicaVoxel @ Ephtracy

# group
o 

# material
mtllib jaewon.mtl
usemtl palette

# normals
vn -1 0 0
vn 1 0 0
vn 0 0 1
vn 0 0 -1
vn 0 -1 0
vn 0 1 0

# texcoords
vt 0.0332031 0.5
vt 0.634766 0.5
vt 0.669922 0.5
vt 0.876953 0.5

# verts
v -0.6 0 0.4
v -0.6 0 -0.4
v -0.6 0.1 0.1
v -0.6 0.1 -0.1
v -0.6 0.1 -0.4
v -0.6 0.2 0.4
v -0.6 0.2 0.1
v -0.6 0.3 -0.1
v -0.6 0.3 -0.2
v -0.6 0.5 -0.2
v -0.6 0.5 -0.4
v -0.5 0.5 -0.2
v -0.5 0.5 -0.4
v -0.5 0.6 -0.3
v -0.5 0.6 -0.4
v -0.5 0.7 -0.2
v -0.5 0.7 -0.3
v -0.5 1 0
v -0.5 1 -1
v -0.5 1.6 0
v -0.5 1.6 -1
v -0.4 0.7 -0.2
v -0.4 0.7 -0.3
v -0.4 0.8 -0.2
v -0.4 0.8 -0.3
v -0.4 1 -0.2
v -0.4 1 -0.3
v -0.3 0.9 -0.1
v -0.3 0.9 -0.2
v -0.3 0.9 -0.3
v -0.3 0.9 -1
v -0.3 1 -0.1
v -0.3 1 -0.2
v -0.3 1 -0.3
v -0.3 1 -1
v -0.3 1.2 0.1
v -0.3 1.2 0
v -0.3 1.6 0.1
v -0.3 1.6 0
v -0.1 1 0.1
v -0.1 1 0
v -0.1 1.2 0.1
v -0.1 1.2 0
v 0.3 0.4 -0.2
v 0.3 0.4 -0.3
v 0.3 0.6 -0.2
v 0.3 0.6 -0.3
v 0.3 0.8 -0.2
v 0.3 0.8 -0.3
v 0.3 0.9 -0.2
v 0.3 0.9 -0.3
v 0.4 0 0.4
v 0.4 0 -0.4
v 0.4 0.1 0.1
v 0.4 0.1 -0.1
v 0.4 0.1 -0.4
v 0.4 0.2 0.4
v 0.4 0.2 0.1
v 0.4 0.3 -0.1
v 0.4 0.3 -0.2
v 0.4 0.4 -0.2
v 0.4 0.4 -0.3
v 0.4 0.6 -0.3
v 0.4 0.6 -0.4
v -0.4 0 0.4
v -0.4 0 -0.4
v -0.4 0.1 0.1
v -0.4 0.1 -0.1
v -0.4 0.1 -0.4
v -0.4 0.2 0.4
v -0.4 0.2 0.1
v -0.4 0.3 -0.1
v -0.4 0.3 -0.2
v -0.4 0.4 -0.2
v -0.4 0.4 -0.3
v -0.4 0.6 -0.3
v -0.4 0.6 -0.4
v -0.3 0.4 -0.2
v -0.3 0.4 -0.3
v -0.3 0.6 -0.2
v -0.3 0.6 -0.3
v -0.3 0.8 -0.2
v -0.3 0.8 -0.3
v -0.3 0.9 -0.2
v -0.3 0.9 -0.3
v 0 1.4 -0.3
v 0 1.4 -1
v 0 1.5 -0.2
v 0 1.5 -0.3
v 0 1.6 -0.2
v 0 1.6 -1
v 0.2 1.2 0.1
v 0.2 1.2 0
v 0.2 1.6 0.1
v 0.2 1.6 0
v 0.3 0.9 -0.1
v 0.3 0.9 -0.2
v 0.3 0.9 -0.3
v 0.3 0.9 -1
v 0.3 1 -0.1
v 0.3 1 -0.2
v 0.3 1.4 -0.2
v 0.3 1.4 -0.3
v 0.3 1.4 -1
v 0.3 1.5 -0.2
v 0.3 1.5 -0.3
v 0.4 0.7 -0.2
v 0.4 0.7 -0.3
v 0.4 0.8 -0.2
v 0.4 0.8 -0.3
v 0.4 1 0.1
v 0.4 1 -0.2
v 0.4 1.1 -0.1
v 0.4 1.1 -0.2
v 0.4 1.2 0.1
v 0.4 1.2 0
v 0.4 1.4 -0.1
v 0.4 1.4 -0.2
v 0.4 1.4 -0.3
v 0.4 1.6 0
v 0.4 1.6 -0.2
v 0.5 0.5 -0.2
v 0.5 0.5 -0.4
v 0.5 0.6 -0.3
v 0.5 0.6 -0.4
v 0.5 0.7 -0.2
v 0.5 0.7 -0.3
v 0.6 0 0.4
v 0.6 0 -0.4
v 0.6 0.1 0.1
v 0.6 0.1 -0.1
v 0.6 0.1 -0.4
v 0.6 0.2 0.4
v 0.6 0.2 0.1
v 0.6 0.3 -0.1
v 0.6 0.3 -0.2
v 0.6 0.5 -0.2
v 0.6 0.5 -0.4
v -0.6 0 0.4
v -0.6 0.2 0.4
v -0.4 0 0.4
v -0.4 0.2 0.4
v 0.4 0 0.4
v 0.4 0.2 0.4
v 0.6 0 0.4
v 0.6 0.2 0.4
v -0.3 1.2 0.1
v -0.3 1.6 0.1
v -0.1 1 0.1
v -0.1 1.2 0.1
v 0.2 1.2 0.1
v 0.2 1.6 0.1
v 0.4 1 0.1
v 0.4 1.2 0.1
v -0.5 1 0
v -0.5 1.6 0
v -0.3 1.2 0
v -0.3 1.6 0
v -0.1 1 0
v -0.1 1.2 0
v 0.2 1.2 0
v 0.2 1.6 0
v 0.4 1.2 0
v 0.4 1.6 0
v -0.6 0.1 -0.1
v -0.6 0.3 -0.1
v -0.4 0.1 -0.1
v -0.4 0.3 -0.1
v -0.3 0.9 -0.1
v -0.3 1 -0.1
v 0.3 0.9 -0.1
v 0.3 1 -0.1
v 0.4 0.1 -0.1
v 0.4 0.3 -0.1
v 0.6 0.1 -0.1
v 0.6 0.3 -0.1
v -0.6 0.3 -0.2
v -0.6 0.5 -0.2
v -0.5 0.5 -0.2
v -0.5 0.7 -0.2
v -0.4 0.3 -0.2
v -0.4 0.4 -0.2
v -0.4 0.6 -0.2
v -0.4 0.7 -0.2
v -0.4 0.8 -0.2
v -0.4 1 -0.2
v -0.3 0.4 -0.2
v -0.3 0.6 -0.2
v -0.3 0.8 -0.2
v -0.3 0.9 -0.2
v -0.3 1 -0.2
v 0.3 0.4 -0.2
v 0.3 0.6 -0.2
v 0.3 0.8 -0.2
v 0.3 0.9 -0.2
v 0.3 1 -0.2
v 0.4 0.3 -0.2
v 0.4 0.4 -0.2
v 0.4 0.6 -0.2
v 0.4 0.7 -0.2
v 0.4 0.8 -0.2
v 0.4 1 -0.2
v 0.5 0.5 -0.2
v 0.5 0.7 -0.2
v 0.6 0.3 -0.2
v 0.6 0.5 -0.2
v -0.6 0.1 0.1
v -0.6 0.2 0.1
v -0.4 0.1 0.1
v -0.4 0.2 0.1
v 0.4 0.1 0.1
v 0.4 0.2 0.1
v 0.6 0.1 0.1
v 0.6 0.2 0.1
v 0 1.5 -0.2
v 0 1.6 -0.2
v 0.3 1.4 -0.2
v 0.3 1.5 -0.2
v 0.4 1.4 -0.2
v 0.4 1.6 -0.2
v -0.5 0.6 -0.3
v -0.5 0.7 -0.3
v -0.4 0.4 -0.3
v -0.4 0.6 -0.3
v -0.4 0.7 -0.3
v -0.4 0.8 -0.3
v -0.4 1 -0.3
v -0.3 0.4 -0.3
v -0.3 0.6 -0.3
v -0.3 0.8 -0.3
v -0.3 0.9 -0.3
v -0.3 1 -0.3
v 0 1.4 -0.3
v 0 1.5 -0.3
v 0.3 0.4 -0.3
v 0.3 0.6 -0.3
v 0.3 0.8 -0.3
v 0.3 0.9 -0.3
v 0.3 1.4 -0.3
v 0.3 1.5 -0.3
v 0.4 0.4 -0.3
v 0.4 0.6 -0.3
v 0.4 0.7 -0.3
v 0.4 0.8 -0.3
v 0.4 1.4 -0.3
v 0.5 0.6 -0.3
v 0.5 0.7 -0.3
v -0.6 0 -0.4
v -0.6 0.1 -0.4
v -0.6 0.5 -0.4
v -0.5 0.5 -0.4
v -0.5 0.6 -0.4
v -0.4 0 -0.4
v -0.4 0.1 -0.4
v -0.4 0.6 -0.4
v 0.4 0 -0.4
v 0.4 0.1 -0.4
v 0.4 0.6 -0.4
v 0.5 0.5 -0.4
v 0.5 0.6 -0.4
v 0.6 0 -0.4
v 0.6 0.1 -0.4
v 0.6 0.5 -0.4
v -0.5 1 -1
v -0.5 1.6 -1
v -0.3 0.9 -1
v -0.3 1 -1
v -0.3 1.4 -1
v 0 1.4 -1
v 0 1.6 -1
v 0.3 0.9 -1
v 0.3 1.4 -1
v -0.6 0 0.4
v -0.4 0 0.4
v 0.4 0 0.4
v 0.6 0 0.4
v -0.6 0 -0.4
v -0.4 0 -0.4
v 0.4 0 -0.4
v 0.6 0 -0.4
v -0.4 0.4 -0.2
v -0.3 0.4 -0.2
v 0.3 0.4 -0.2
v 0.4 0.4 -0.2
v -0.4 0.4 -0.3
v -0.3 0.4 -0.3
v 0.3 0.4 -0.3
v 0.4 0.4 -0.3
v -0.3 0.9 -0.1
v 0.3 0.9 -0.1
v -0.3 0.9 -0.2
v 0.3 0.9 -0.2
v -0.3 0.9 -0.3
v 0.3 0.9 -0.3
v -0.3 0.9 -1
v 0.3 0.9 -1
v -0.1 1 0.1
v 0.4 1 0.1
v -0.5 1 0
v -0.1 1 0
v -0.3 1 -0.1
v 0.3 1 -0.1
v -0.4 1 -0.2
v -0.3 1 -0.2
v 0.3 1 -0.2
v 0.4 1 -0.2
v -0.4 1 -0.3
v -0.3 1 -0.3
v -0.5 1 -1
v -0.3 1 -1
v -0.3 1.2 0.1
v -0.1 1.2 0.1
v -0.3 1.2 0
v -0.1 1.2 0
v -0.6 0.1 0.1
v -0.4 0.1 0.1
v 0.4 0.1 0.1
v 0.6 0.1 0.1
v -0.6 0.1 -0.1
v -0.4 0.1 -0.1
v 0.4 0.1 -0.1
v 0.6 0.1 -0.1
v -0.6 0.2 0.4
v -0.4 0.2 0.4
v 0.4 0.2 0.4
v 0.6 0.2 0.4
v -0.6 0.2 0.1
v -0.4 0.2 0.1
v 0.4 0.2 0.1
v 0.6 0.2 0.1
v -0.6 0.3 -0.1
v -0.4 0.3 -0.1
v 0.4 0.3 -0.1
v 0.6 0.3 -0.1
v -0.6 0.3 -0.2
v -0.4 0.3 -0.2
v 0.4 0.3 -0.2
v 0.6 0.3 -0.2
v -0.6 0.5 -0.2
v -0.5 0.5 -0.2
v 0.5 0.5 -0.2
v 0.6 0.5 -0.2
v -0.6 0.5 -0.4
v -0.5 0.5 -0.4
v 0.5 0.5 -0.4
v 0.6 0.5 -0.4
v -0.5 0.6 -0.3
v -0.4 0.6 -0.3
v 0.4 0.6 -0.3
v 0.5 0.6 -0.3
v -0.5 0.6 -0.4
v -0.4 0.6 -0.4
v 0.4 0.6 -0.4
v 0.5 0.6 -0.4
v -0.5 0.7 -0.2
v -0.4 0.7 -0.2
v 0.4 0.7 -0.2
v 0.5 0.7 -0.2
v -0.5 0.7 -0.3
v -0.4 0.7 -0.3
v 0.4 0.7 -0.3
v 0.5 0.7 -0.3
v 0.2 1.2 0.1
v 0.4 1.2 0.1
v 0.2 1.2 0
v 0.4 1.2 0
v 0.3 1.4 -0.2
v 0.4 1.4 -0.2
v 0 1.4 -0.3
v 0.3 1.4 -0.3
v 0.4 1.4 -0.3
v 0 1.4 -1
v 0.3 1.4 -1
v 0 1.5 -0.2
v 0.3 1.5 -0.2
v 0 1.5 -0.3
v 0.3 1.5 -0.3
v -0.3 1.6 0.1
v 0.2 1.6 0.1
v -0.5 1.6 0
v -0.3 1.6 0
v 0.2 1.6 0
v 0.4 1.6 0
v 0 1.6 -0.2
v 0.4 1.6 -0.2
v -0.5 1.6 -1
v 0 1.6 -1

# faces
f 3/4/1 2/4/1 1/4/1
f 4/4/1 2/4/1 3/4/1
f 5/4/1 2/4/1 4/4/1
f 6/4/1 3/4/1 1/4/1
f 7/4/1 3/4/1 6/4/1
f 8/1/1 5/1/1 4/1/1
f 9/1/1 5/1/1 8/1/1
f 10/1/1 5/1/1 9/1/1
f 11/1/1 5/1/1 10/1/1
f 14/1/1 13/1/1 12/1/1
f 15/1/1 13/1/1 14/1/1
f 16/1/1 14/1/1 12/1/1
f 17/1/1 14/1/1 16/1/1
f 20/2/1 19/2/1 18/2/1
f 21/2/1 19/2/1 20/2/1
f 24/1/1 23/1/1 22/1/1
f 25/1/1 23/1/1 24/1/1
f 26/3/1 25/3/1 24/3/1
f 27/3/1 25/3/1 26/3/1
f 32/3/1 29/3/1 28/3/1
f 33/3/1 29/3/1 32/3/1
f 34/3/1 31/3/1 30/3/1
f 35/3/1 31/3/1 34/3/1
f 38/2/1 37/2/1 36/2/1
f 39/2/1 37/2/1 38/2/1
f 42/2/1 41/2/1 40/2/1
f 43/2/1 41/2/1 42/2/1
f 46/3/1 45/3/1 44/3/1
f 47/3/1 45/3/1 46/3/1
f 48/1/1 47/1/1 46/1/1
f 49/1/1 47/1/1 48/1/1
f 50/3/1 49/3/1 48/3/1
f 51/3/1 49/3/1 50/3/1
f 54/4/1 53/4/1 52/4/1
f 55/4/1 53/4/1 54/4/1
f 56/4/1 53/4/1 55/4/1
f 57/4/1 54/4/1 52/4/1
f 58/4/1 54/4/1 57/4/1
f 59/1/1 56/1/1 55/1/1
f 60/1/1 56/1/1 59/1/1
f 61/1/1 56/1/1 60/1/1
f 62/1/1 56/1/1 61/1/1
f 63/1/1 56/1/1 62/1/1
f 64/1/1 56/1/1 63/1/1
f 65/4/2 66/4/2 67/4/2
f 67/4/2 66/4/2 68/4/2
f 68/4/2 66/4/2 69/4/2
f 65/4/2 67/4/2 70/4/2
f 70/4/2 67/4/2 71/4/2
f 68/1/2 69/1/2 72/1/2
f 72/1/2 69/1/2 73/1/2
f 73/1/2 69/1/2 74/1/2
f 74/1/2 69/1/2 75/1/2
f 75/1/2 69/1/2 76/1/2
f 76/1/2 69/1/2 77/1/2
f 78/3/2 79/3/2 80/3/2
f 80/3/2 79/3/2 81/3/2
f 80/1/2 81/1/2 82/1/2
f 82/1/2 81/1/2 83/1/2
f 82/3/2 83/3/2 84/3/2
f 84/3/2 83/3/2 85/3/2
f 86/2/2 87/2/2 89/2/2
f 88/2/2 89/2/2 90/2/2
f 89/2/2 87/2/2 91/2/2
f 90/2/2 89/2/2 91/2/2
f 92/2/2 93/2/2 94/2/2
f 94/2/2 93/2/2 95/2/2
f 96/3/2 97/3/2 100/3/2
f 100/3/2 97/3/2 101/3/2
f 98/3/2 99/3/2 103/3/2
f 103/3/2 99/3/2 104/3/2
f 102/3/2 103/3/2 105/3/2
f 105/3/2 103/3/2 106/3/2
f 107/1/2 108/1/2 109/1/2
f 109/1/2 108/1/2 110/1/2
f 109/3/2 110/3/2 112/3/2
f 111/2/2 112/2/2 113/2/2
f 112/3/2 110/3/2 114/3/2
f 113/2/2 112/2/2 114/2/2
f 111/2/2 113/2/2 115/2/2
f 115/2/2 113/2/2 116/2/2
f 113/3/2 114/3/2 117/3/2
f 116/2/2 113/2/2 117/2/2
f 114/3/2 110/3/2 118/3/2
f 117/3/2 114/3/2 118/3/2
f 118/3/2 110/3/2 119/3/2
f 116/2/2 117/2/2 120/2/2
f 117/2/2 118/2/2 120/2/2
f 120/2/2 118/2/2 121/2/2
f 122/1/2 123/1/2 124/1/2
f 124/1/2 123/1/2 125/1/2
f 122/1/2 124/1/2 126/1/2
f 126/1/2 124/1/2 127/1/2
f 128/4/2 129/4/2 130/4/2
f 130/4/2 129/4/2 131/4/2
f 131/4/2 129/4/2 132/4/2
f 128/4/2 130/4/2 133/4/2
f 133/4/2 130/4/2 134/4/2
f 131/1/2 132/1/2 135/1/2
f 135/1/2 132/1/2 136/1/2
f 136/1/2 132/1/2 137/1/2
f 137/1/2 132/1/2 138/1/2
f 141/4/3 140/4/3 139/4/3
f 142/4/3 140/4/3 141/4/3
f 145/4/3 144/4/3 143/4/3
f 146/4/3 144/4/3 145/4/3
f 150/2/3 148/2/3 147/2/3
f 151/2/3 148/2/3 150/2/3
f 151/2/3 150/2/3 149/2/3
f 152/2/3 148/2/3 151/2/3
f 153/2/3 151/2/3 149/2/3
f 154/2/3 151/2/3 153/2/3
f 157/2/3 156/2/3 155/2/3
f 158/2/3 156/2/3 157/2/3
f 159/2/3 157/2/3 155/2/3
f 160/2/3 157/2/3 159/2/3
f 163/2/3 162/2/3 161/2/3
f 164/2/3 162/2/3 163/2/3
f 167/1/3 166/1/3 165/1/3
f 168/1/3 166/1/3 167/1/3
f 171/3/3 170/3/3 169/3/3
f 172/3/3 170/3/3 171/3/3
f 175/1/3 174/1/3 173/1/3
f 176/1/3 174/1/3 175/1/3
f 179/1/3 178/1/3 177/1/3
f 181/1/3 179/1/3 177/1/3
f 181/1/3 180/1/3 179/1/3
f 182/1/3 180/1/3 181/1/3
f 183/1/3 180/1/3 182/1/3
f 184/1/3 180/1/3 183/1/3
f 187/3/3 183/3/3 182/3/3
f 188/1/3 185/1/3 184/1/3
f 188/3/3 183/3/3 187/3/3
f 188/1/3 184/1/3 183/1/3
f 189/3/3 186/3/3 185/3/3
f 189/1/3 185/1/3 188/1/3
f 190/3/3 186/3/3 189/3/3
f 191/3/3 186/3/3 190/3/3
f 198/3/3 193/3/3 192/3/3
f 199/1/3 194/1/3 193/1/3
f 199/3/3 193/3/3 198/3/3
f 200/1/3 194/1/3 199/1/3
f 201/3/3 196/3/3 195/3/3
f 201/1/3 194/1/3 200/1/3
f 201/3/3 195/3/3 194/3/3
f 202/3/3 196/3/3 201/3/3
f 203/1/3 200/1/3 199/1/3
f 203/1/3 198/1/3 197/1/3
f 203/1/3 199/1/3 198/1/3
f 204/1/3 200/1/3 203/1/3
f 205/1/3 203/1/3 197/1/3
f 206/1/3 203/1/3 205/1/3
f 207/4/4 208/4/4 209/4/4
f 209/4/4 208/4/4 210/4/4
f 211/4/4 212/4/4 213/4/4
f 213/4/4 212/4/4 214/4/4
f 215/2/4 216/2/4 218/2/4
f 217/2/4 218/2/4 219/2/4
f 218/2/4 216/2/4 220/2/4
f 219/2/4 218/2/4 220/2/4
f 221/1/4 222/1/4 224/1/4
f 224/1/4 222/1/4 225/1/4
f 223/3/4 224/3/4 228/3/4
f 224/1/4 225/1/4 229/1/4
f 228/3/4 224/3/4 229/3/4
f 225/1/4 226/1/4 229/1/4
f 226/3/4 227/3/4 230/3/4
f 229/1/4 226/1/4 230/1/4
f 230/3/4 227/3/4 231/3/4
f 231/3/4 227/3/4 232/3/4
f 233/3/4 234/3/4 239/3/4
f 239/3/4 234/3/4 240/3/4
f 235/3/4 236/3/4 241/3/4
f 236/1/4 237/1/4 242/1/4
f 241/3/4 236/3/4 242/3/4
f 242/1/4 237/1/4 243/1/4
f 237/3/4 238/3/4 244/3/4
f 243/1/4 237/1/4 244/1/4
f 238/3/4 239/3/4 244/3/4
f 244/3/4 239/3/4 245/3/4
f 242/1/4 243/1/4 246/1/4
f 246/1/4 243/1/4 247/1/4
f 249/1/4 250/1/4 251/1/4
f 248/4/4 249/4/4 253/4/4
f 251/1/4 252/1/4 254/1/4
f 253/4/4 249/4/4 254/4/4
f 249/1/4 251/1/4 254/1/4
f 254/1/4 252/1/4 255/1/4
f 257/1/4 258/1/4 259/1/4
f 259/1/4 258/1/4 260/1/4
f 256/4/4 257/4/4 261/4/4
f 257/1/4 259/1/4 262/1/4
f 261/4/4 257/4/4 262/4/4
f 262/1/4 259/1/4 263/1/4
f 264/2/4 265/2/4 267/2/4
f 267/2/4 265/2/4 268/2/4
f 266/3/4 267/3/4 269/3/4
f 268/2/4 265/2/4 269/2/4
f 267/3/4 268/3/4 269/3/4
f 269/2/4 265/2/4 270/2/4
f 266/3/4 269/3/4 271/3/4
f 271/3/4 269/3/4 272/3/4
f 277/4/5 274/4/5 273/4/5
f 278/4/5 274/4/5 277/4/5
f 279/4/5 276/4/5 275/4/5
f 280/4/5 276/4/5 279/4/5
f 285/3/5 282/3/5 281/3/5
f 286/3/5 282/3/5 285/3/5
f 287/3/5 284/3/5 283/3/5
f 288/3/5 284/3/5 287/3/5
f 291/3/5 290/3/5 289/3/5
f 292/3/5 290/3/5 291/3/5
f 293/3/5 292/3/5 291/3/5
f 294/3/5 292/3/5 293/3/5
f 295/3/5 294/3/5 293/3/5
f 296/3/5 294/3/5 295/3/5
f 300/2/5 298/2/5 297/2/5
f 301/2/5 300/2/5 299/2/5
f 302/2/5 298/2/5 300/2/5
f 302/2/5 300/2/5 301/2/5
f 303/2/5 301/2/5 299/2/5
f 304/2/5 301/2/5 303/2/5
f 305/2/5 298/2/5 302/2/5
f 306/2/5 298/2/5 305/2/5
f 307/2/5 303/2/5 299/2/5
f 309/2/5 307/2/5 299/2/5
f 309/2/5 308/2/5 307/2/5
f 310/2/5 308/2/5 309/2/5
f 313/2/5 312/2/5 311/2/5
f 314/2/5 312/2/5 313/2/5
f 315/4/6 316/4/6 319/4/6
f 319/4/6 316/4/6 320/4/6
f 317/4/6 318/4/6 321/4/6
f 321/4/6 318/4/6 322/4/6
f 323/4/6 324/4/6 327/4/6
f 327/4/6 324/4/6 328/4/6
f 325/4/6 326/4/6 329/4/6
f 329/4/6 326/4/6 330/4/6
f 331/1/6 332/1/6 335/1/6
f 335/1/6 332/1/6 336/1/6
f 333/1/6 334/1/6 337/1/6
f 337/1/6 334/1/6 338/1/6
f 339/1/6 340/1/6 343/1/6
f 343/1/6 340/1/6 344/1/6
f 341/1/6 342/1/6 345/1/6
f 345/1/6 342/1/6 346/1/6
f 347/1/6 348/1/6 351/1/6
f 351/1/6 348/1/6 352/1/6
f 349/1/6 350/1/6 353/1/6
f 353/1/6 350/1/6 354/1/6
f 355/1/6 356/1/6 359/1/6
f 359/1/6 356/1/6 360/1/6
f 357/1/6 358/1/6 361/1/6
f 361/1/6 358/1/6 362/1/6
f 363/2/6 364/2/6 365/2/6
f 365/2/6 364/2/6 366/2/6
f 367/3/6 368/3/6 370/3/6
f 370/3/6 368/3/6 371/3/6
f 369/3/6 370/3/6 372/3/6
f 372/3/6 370/3/6 373/3/6
f 374/3/6 375/3/6 376/3/6
f 376/3/6 375/3/6 377/3/6
f 378/2/6 379/2/6 381/2/6
f 381/2/6 379/2/6 382/2/6
f 380/2/6 381/2/6 384/2/6
f 382/2/6 383/2/6 384/2/6
f 381/2/6 382/2/6 384/2/6
f 384/2/6 383/2/6 385/2/6
f 380/2/6 384/2/6 386/2/6
f 386/2/6 384/2/6 387/2/6
